# xmcd
#
# Track frame offsets:
#	150
#	20240
#	40392
#	58107
#	82477
#	103145
#	123720
#	141465
#	162752
#	176495
#	188175
#	204850
#
# Disc length: 3000 seconds
#
# Revision: 1
# Processed by: cddbd v1.5.1PL0 Copyright (c) Steve Scherf et al.
# Submitted via: CDex 1.50Beta5
#
DISCID=b70bb60c
DTITLE=MUSTANG!! - REAL FOR REG ROCK
DYEAR=1900
DGENRE=Rock
TTITLE0=High Life Over Again
TTITLE1=ライナー
TTITLE2=ラリロンDe
TTITLE3=Narrowly
TTITLE4=如月の風
TTITLE5=Restart
TTITLE6=Sunny Side of your life
TTITLE7=1978
TTITLE8=Loud Rocks&Coke
TTITLE9=Ice Cream☆Car
TTITLE10=Let it go at that
TTITLE11=Dolly Dolly
EXTD=
EXTT0=
EXTT1=
EXTT2=
EXTT3=
EXTT4=
EXTT5=
EXTT6=
EXTT7=
EXTT8=
EXTT9=
EXTT10=
EXTT11=
PLAYORDER=
